<?xml version="1.0" encoding="UTF-8" standalone="no"?>
<!-- Created with Inkscape (http://www.inkscape.org/) -->

<svg
   xmlns:dc="http://purl.org/dc/elements/1.1/"
   xmlns:cc="http://creativecommons.org/ns#"
   xmlns:rdf="http://www.w3.org/1999/02/22-rdf-syntax-ns#"
   xmlns:svg="http://www.w3.org/2000/svg"
   xmlns="http://www.w3.org/2000/svg"
   xmlns:sodipodi="http://sodipodi.sourceforge.net/DTD/sodipodi-0.dtd"
   xmlns:inkscape="http://www.inkscape.org/namespaces/inkscape"
   version="1.1"
   width="64"
   height="64"
   id="svg2985"
   inkscape:version="0.48.4 r9939"
   sodipodi:docname="addv_btn_1.svg">
  <sodipodi:namedview
     pagecolor="#ffffff"
     bordercolor="#666666"
     borderopacity="1"
     objecttolerance="10"
     gridtolerance="10"
     guidetolerance="10"
     inkscape:pageopacity="0"
     inkscape:pageshadow="2"
     inkscape:window-width="640"
     inkscape:window-height="480"
     id="namedview3433"
     showgrid="false"
     inkscape:zoom="3.6875"
     inkscape:cx="32"
     inkscape:cy="32"
     inkscape:window-x="0"
     inkscape:window-y="0"
     inkscape:window-maximized="0"
     inkscape:current-layer="svg2985" />
  <defs
     id="defs2987" />
  <metadata
     id="metadata2990">
    <rdf:RDF>
      <cc:Work
         rdf:about="">
        <dc:format>image/svg+xml</dc:format>
        <dc:type
           rdf:resource="http://purl.org/dc/dcmitype/StillImage" />
        <dc:title />
      </cc:Work>
    </rdf:RDF>
  </metadata>
  <g
     id="g3894"
     transform="matrix(0.817931,0,0,0.817931,119.51301,-203.22573)">
    <path
       inkscape:connector-curvature="0"
       style="fill:#5c5c5c;fill-opacity:1;stroke:none"
       id="path3871"
       d="m -114.58413,275.32995 c -10.5674,0.53566 -18.96875,9.29948 -18.96875,20 0,11.04569 8.95431,20 20,20 11.0457,0 20,-8.95431 20,-20 0,-11.04569 -8.9543,-20 -20,-20 -0.34518,0 -0.69037,-0.0173 -1.03125,0 z m -10.875,7.75 4.25,0 7.65625,20.53125 7.65625,-20.53125 4.25,0 -9.1875,24.46875 -5.4375,0 -9.1875,-24.46875 z" />
    <g
       id="g3886"
       transform="matrix(0.51685393,0,0,0.51685393,10.782052,131.48084)">
      <rect
         style="fill:#5c5c5c;fill-opacity:1;stroke:none"
         id="rect3882"
         y="248.35213"
         x="-207.71262"
         ry="7.4919648"
         height="52.443752"
         width="10.017346" />
      <rect
         style="fill:#5c5c5c;fill-opacity:1;stroke:none"
         id="rect3884"
         transform="matrix(0,1,-1,0,0,0)"
         y="176.48207"
         x="269.56534"
         ry="7.4919648"
         height="52.443752"
         width="10.017346" />
    </g>
  </g>
</svg>
