<?xml version="1.0" encoding="UTF-8" standalone="no"?>
<!-- Created with Inkscape (http://www.inkscape.org/) -->

<svg
   xmlns:dc="http://purl.org/dc/elements/1.1/"
   xmlns:cc="http://creativecommons.org/ns#"
   xmlns:rdf="http://www.w3.org/1999/02/22-rdf-syntax-ns#"
   xmlns:svg="http://www.w3.org/2000/svg"
   xmlns="http://www.w3.org/2000/svg"
   version="1.1"
   width="64"
   height="64"
   id="svg2985">
  <defs
     id="defs2987" />
  <metadata
     id="metadata2990">
    <rdf:RDF>
      <cc:Work
         rdf:about="">
        <dc:format>image/svg+xml</dc:format>
        <dc:type
           rdf:resource="http://purl.org/dc/dcmitype/StillImage" />
        <dc:title></dc:title>
      </cc:Work>
    </rdf:RDF>
  </metadata>
  <g
     id="layer1">
    <path
       d="m 1133.7279,101.62746 a 398.33682,398.33682 0 1 1 -796.67367,0 398.33682,398.33682 0 1 1 796.67367,0 z"
       transform="matrix(0.07481994,0,0,0.07481994,-23.021916,24.396241)"
       id="path3808"
       style="fill:none;stroke:#5c5c5c;stroke-width:58.71326065;stroke-miterlimit:4;stroke-opacity:1;stroke-dasharray:none" />
    <g
       transform="matrix(0.817931,0,0,0.817931,119.51301,-203.22573)"
       id="g3894">
      <path
         d="m -114.58413,275.32995 c -10.5674,0.53566 -18.96875,9.29948 -18.96875,20 0,11.04569 8.95431,20 20,20 11.0457,0 20,-8.95431 20,-20 0,-11.04569 -8.9543,-20 -20,-20 -0.34518,0 -0.69037,-0.0173 -1.03125,0 z m -10.875,7.75 4.25,0 7.65625,20.53125 7.65625,-20.53125 4.25,0 -9.1875,24.46875 -5.4375,0 -9.1875,-24.46875 z"
         id="path3871"
         style="fill:#5c5c5c;fill-opacity:1;stroke:none" />
      <g
         transform="matrix(0.51685393,0,0,0.51685393,10.782052,131.48084)"
         id="g3886">
        <rect
           width="10.017346"
           height="52.443752"
           ry="7.4919648"
           x="-207.71262"
           y="248.35213"
           id="rect3882"
           style="fill:#5c5c5c;fill-opacity:1;stroke:none" />
        <rect
           width="10.017346"
           height="52.443752"
           ry="7.4919648"
           x="269.56534"
           y="176.48207"
           transform="matrix(0,1,-1,0,0,0)"
           id="rect3884"
           style="fill:#5c5c5c;fill-opacity:1;stroke:none" />
      </g>
    </g>
  </g>
</svg>
