<?xml version="1.0" encoding="UTF-8" standalone="no"?>
<!-- Created with Inkscape (http://www.inkscape.org/) -->

<svg
   xmlns:dc="http://purl.org/dc/elements/1.1/"
   xmlns:cc="http://creativecommons.org/ns#"
   xmlns:rdf="http://www.w3.org/1999/02/22-rdf-syntax-ns#"
   xmlns:svg="http://www.w3.org/2000/svg"
   xmlns="http://www.w3.org/2000/svg"
   xmlns:sodipodi="http://sodipodi.sourceforge.net/DTD/sodipodi-0.dtd"
   xmlns:inkscape="http://www.inkscape.org/namespaces/inkscape"
   width="64px"
   height="64px"
   id="svg5092"
   version="1.1"
   inkscape:version="0.48.4 r9939"
   sodipodi:docname="New document 12">
  <defs
     id="defs5094" />
  <sodipodi:namedview
     id="base"
     pagecolor="#ffffff"
     bordercolor="#666666"
     borderopacity="1.0"
     inkscape:pageopacity="0.0"
     inkscape:pageshadow="2"
     inkscape:zoom="5.5"
     inkscape:cx="32"
     inkscape:cy="32"
     inkscape:current-layer="layer1"
     showgrid="true"
     inkscape:document-units="px"
     inkscape:grid-bbox="true"
     inkscape:window-width="1600"
     inkscape:window-height="835"
     inkscape:window-x="0"
     inkscape:window-y="0"
     inkscape:window-maximized="1" />
  <metadata
     id="metadata5097">
    <rdf:RDF>
      <cc:Work
         rdf:about="">
        <dc:format>image/svg+xml</dc:format>
        <dc:type
           rdf:resource="http://purl.org/dc/dcmitype/StillImage" />
        <dc:title></dc:title>
      </cc:Work>
    </rdf:RDF>
  </metadata>
  <g
     id="layer1"
     inkscape:label="Layer 1"
     inkscape:groupmode="layer">
    <path
       sodipodi:type="arc"
       style="fill:#ffffff;fill-opacity:1;stroke:none"
       id="path5100"
       sodipodi:cx="-23.454546"
       sodipodi:cy="26.727272"
       sodipodi:rx="6.181818"
       sodipodi:ry="6.181818"
       d="m -17.272728,26.727272 a 6.181818,6.181818 0 1 1 -12.363636,0 6.181818,6.181818 0 1 1 12.363636,0 z"
       transform="matrix(0.61764704,0,0,0.61764704,47.213903,-4.3262031)" />
    <path
       sodipodi:type="arc"
       style="fill:#ffffff;fill-opacity:1;stroke:none"
       id="path5100-5"
       sodipodi:cx="-23.454546"
       sodipodi:cy="26.727272"
       sodipodi:rx="6.181818"
       sodipodi:ry="6.181818"
       d="m -17.272728,26.727272 a 6.181818,6.181818 0 1 1 -12.363636,0 6.181818,6.181818 0 1 1 12.363636,0 z"
       transform="matrix(0.61764704,0,0,0.61764704,25.395722,-4.3262023)" />
    <path
       sodipodi:type="arc"
       style="fill:#ffffff;fill-opacity:1;stroke:none"
       id="path5100-4"
       sodipodi:cx="-23.454546"
       sodipodi:cy="26.727272"
       sodipodi:rx="6.181818"
       sodipodi:ry="6.181818"
       d="m -17.272728,26.727272 a 6.181818,6.181818 0 1 1 -12.363636,0 6.181818,6.181818 0 1 1 12.363636,0 z"
       transform="matrix(0.61764704,0,0,0.61764704,68.486631,-4.3262023)" />
    <path
       transform="matrix(0.61764704,0,0,0.61764704,25.395722,33.673798)"
       d="m -17.272728,26.727272 a 6.181818,6.181818 0 1 1 -12.363636,0 6.181818,6.181818 0 1 1 12.363636,0 z"
       sodipodi:ry="6.181818"
       sodipodi:rx="6.181818"
       sodipodi:cy="26.727272"
       sodipodi:cx="-23.454546"
       id="path5156"
       style="fill:#ffffff;fill-opacity:1;stroke:none"
       sodipodi:type="arc" />
    <path
       sodipodi:type="arc"
       style="fill:#ffffff;fill-opacity:1;stroke:none"
       id="path5169"
       sodipodi:cx="-23.454546"
       sodipodi:cy="26.727272"
       sodipodi:rx="6.181818"
       sodipodi:ry="6.181818"
       d="m -17.272728,26.727272 a 6.181818,6.181818 0 1 1 -12.363636,0 6.181818,6.181818 0 1 1 12.363636,0 z"
       transform="matrix(0.61764704,0,0,0.61764704,47.395722,33.673798)" />
    <path
       transform="matrix(0.61764704,0,0,0.61764704,69.395722,33.673798)"
       d="m -17.272728,26.727272 a 6.181818,6.181818 0 1 1 -12.363636,0 6.181818,6.181818 0 1 1 12.363636,0 z"
       sodipodi:ry="6.181818"
       sodipodi:rx="6.181818"
       sodipodi:cy="26.727272"
       sodipodi:cx="-23.454546"
       id="path5171"
       style="fill:#ffffff;fill-opacity:1;stroke:none"
       sodipodi:type="arc" />
    <rect
       style="fill:#ffffff;fill-opacity:1;stroke:none"
       id="rect5173"
       width="2"
       height="37.81818"
       x="9.636363"
       y="12.363636" />
    <rect
       y="12.363636"
       x="-33.636364"
       height="37.81818"
       width="2"
       id="rect5175"
       style="fill:#ffffff;fill-opacity:1;stroke:none"
       transform="scale(-1,1)" />
    <rect
       style="fill:#ffffff;fill-opacity:1;stroke:none"
       id="rect5177"
       width="2"
       height="37.81818"
       x="53.636364"
       y="12.363636" />
    <rect
       y="-75.072556"
       x="1.3618323"
       height="56.906792"
       width="2.0000064"
       id="rect5181"
       style="fill:#ffffff;fill-opacity:1;stroke:none"
       transform="matrix(-0.6503984,0.75959326,-0.75836476,-0.65183041,0,0)" />
    <rect
       transform="matrix(0.6503984,0.75959326,0.75836476,-0.65183041,0,0)"
       style="fill:#ffffff;fill-opacity:1;stroke:none"
       id="rect5185"
       width="2.0000064"
       height="56.906792"
       x="45.449364"
       y="-23.69632" />
    <rect
       y="-42.308056"
       x="33.025539"
       height="48.726635"
       width="1.9999998"
       id="rect5187"
       style="fill:#ffffff;fill-opacity:1;stroke:none"
       transform="matrix(0.87556898,0.48309312,0.47979965,-0.87737808,0,0)" />
    <rect
       transform="matrix(-0.87556898,0.48309312,-0.47979965,-0.87737808,0,0)"
       style="fill:#ffffff;fill-opacity:1;stroke:none"
       id="rect5189"
       width="1.9999998"
       height="48.726635"
       x="-24.186403"
       y="-73.187836" />
    <rect
       y="-62.400517"
       x="-4.9711862"
       height="48.726635"
       width="1.9999998"
       id="rect5191"
       style="fill:#ffffff;fill-opacity:1;stroke:none"
       transform="matrix(-0.87556898,0.48309312,-0.47979965,-0.87737808,0,0)" />
    <rect
       transform="matrix(0.87556898,0.48309312,0.47979965,-0.87737808,0,0)"
       style="fill:#ffffff;fill-opacity:1;stroke:none"
       id="rect5193"
       width="1.9999998"
       height="48.726635"
       x="52.966095"
       y="-31.328592" />
  </g>
</svg>
