<!-- Created with Inkscape (http://www.inkscape.org/) -->
<svg xmlns:rdf="http://www.w3.org/1999/02/22-rdf-syntax-ns#" xmlns="http://www.w3.org/2000/svg" version="1.1" xmlns:cc="http://creativecommons.org/ns#" xmlns:dc="http://purl.org/dc/elements/1.1/" viewBox="0 0 64 32">
 <metadata>
  <rdf:RDF>
   <cc:Work rdf:about="">
    <dc:format>image/svg+xml</dc:format>
    <dc:type rdf:resource="http://purl.org/dc/dcmitype/StillImage"/>
    <dc:title/>
   </cc:Work>
  </rdf:RDF>
 </metadata>
 <g fill="#000" transform="translate(0,-32)">
  <path d="m35.86,39.906,1.514,1.5353,8.2773-8.1625,2.0406,2.0693-8.2773,8.1625,1.536,1.5576-7.0397,1.807,1.9491-6.9692z"/>
  <path d="m35.86,55.983,1.514-1.5353,8.2773,8.1625,2.0406-2.0693-8.2773-8.1625,1.536-1.5576-7.0397-1.807,1.9491,6.9692z"/>
  <path d="m29.403,40.04-1.514,1.5353-8.2773-8.1625-2.0406,2.0693,8.2773,8.1625-1.536,1.5576,7.0397,1.807-1.9491-6.9692z"/>
  <path d="m29.403,55.849-1.514-1.5353-8.2773,8.1625-2.0406-2.0693,8.2773-8.1625-1.536-1.5576,7.0397-1.807-1.9491,6.9692z"/>
 </g>
</svg>
