<?xml version="1.0" encoding="UTF-8" standalone="no"?>
<!-- Created with Inkscape (http://www.inkscape.org/) -->

<svg
   xmlns:dc="http://purl.org/dc/elements/1.1/"
   xmlns:cc="http://creativecommons.org/ns#"
   xmlns:rdf="http://www.w3.org/1999/02/22-rdf-syntax-ns#"
   xmlns:svg="http://www.w3.org/2000/svg"
   xmlns="http://www.w3.org/2000/svg"
   xmlns:sodipodi="http://sodipodi.sourceforge.net/DTD/sodipodi-0.dtd"
   xmlns:inkscape="http://www.inkscape.org/namespaces/inkscape"
   width="64px"
   height="64px"
   id="svg5092"
   version="1.1"
   inkscape:version="0.48.4 r9939"
   sodipodi:docname="k33.svg">
  <defs
     id="defs5094" />
  <sodipodi:namedview
     id="base"
     pagecolor="#ffffff"
     bordercolor="#666666"
     borderopacity="1.0"
     inkscape:pageopacity="0.0"
     inkscape:pageshadow="2"
     inkscape:zoom="5.5"
     inkscape:cx="8.6537584"
     inkscape:cy="37.725016"
     inkscape:current-layer="layer1"
     showgrid="true"
     inkscape:document-units="px"
     inkscape:grid-bbox="true"
     inkscape:window-width="1600"
     inkscape:window-height="835"
     inkscape:window-x="0"
     inkscape:window-y="0"
     inkscape:window-maximized="1" />
  <metadata
     id="metadata5097">
    <rdf:RDF>
      <cc:Work
         rdf:about="">
        <dc:format>image/svg+xml</dc:format>
        <dc:type
           rdf:resource="http://purl.org/dc/dcmitype/StillImage" />
        <dc:title />
      </cc:Work>
    </rdf:RDF>
  </metadata>
  <g
     id="layer1"
     inkscape:label="Layer 1"
     inkscape:groupmode="layer">
    <path
       style="fill:#ffffff;fill-opacity:1;stroke:none"
       d="m 48.063216,2.0380676 c -3.442813,0 -6.275509,2.7816763 -6.275509,6.2244897 0,3.4428137 2.832696,6.2244907 6.275509,6.2244907 3.442814,0 6.224491,-2.781677 6.224491,-6.2244907 0,-3.4428134 -2.781677,-6.2244897 -6.224491,-6.2244897 z m 0.561225,2.4489792 c 0.344228,8.8e-6 0.644382,0.00176 0.918368,0.051016 0.280999,0.042156 0.517577,0.089843 0.714285,0.1530613 0.203724,0.056209 0.383747,0.1408588 0.510204,0.2040817 0.133466,0.063235 0.198895,0.1179471 0.255102,0.1530614 L 50.563216,6.3237767 C 50.338407,6.2043482 50.092961,6.1019611 49.79791,6.0176541 49.509876,5.9263445 49.172751,5.9156074 48.828523,5.9156074 c -0.765742,5.8e-6 -1.339445,0.1837178 -1.683673,0.6122452 -0.337209,0.4215116 -0.510206,0.9970617 -0.510204,1.7346937 -2e-6,0.358284 0.06875,0.725356 0.15306,1.020409 0.0843,0.288032 0.188537,0.503534 0.357144,0.714286 0.168601,0.2107547 0.410356,0.3907777 0.663266,0.5102027 0.2529,0.112402 0.530137,0.153062 0.867346,0.153062 0.182648,2e-6 0.332728,0.007 0.459184,0 0.133466,-0.007 0.258787,-0.02994 0.357143,-0.05102 l 0,-2.5510217 1.632652,0 0,3.6224517 c -0.196711,0.07727 -0.482816,0.170799 -0.918366,0.2551 -0.435564,0.09133 -0.993372,0.153062 -1.632654,0.153062 -0.547963,0 -1.029987,-0.0865 -1.479591,-0.255103 -0.442584,-0.168602 -0.857341,-0.442149 -1.17347,-0.765305 -0.316133,-0.323155 -0.538658,-0.702785 -0.714287,-1.1734697 -0.168603,-0.470681 -0.255102,-1.028491 -0.255102,-1.632652 0,-0.611182 0.116436,-1.1109457 0.306124,-1.581634 0.189676,-0.4706808 0.435124,-0.9013307 0.765305,-1.2244934 0.33018,-0.3301741 0.730887,-0.5456751 1.173471,-0.7142861 0.449604,-0.168595 0.922759,-0.2550934 1.42857,-0.2551022 z"
       id="path5100-4"
       inkscape:connector-curvature="0" />
    <path
       d="m 7.5051791,30.93933 23.4348559,-9.833374 7.128907,2.914601 6.695671,-2.809535 1.94307,-4.752607 -1.404767,-3.347838 -3.347837,1.404769 -3.347837,1.40477 L 33.854638,13.977047 35.797705,9.2244413 39.145542,7.819673 42.493381,6.4149042 41.088611,3.067067 36.336008,1.1239995 29.640334,3.9335355 26.725727,11.062446 3.2908756,20.895823 1.347807,25.648426 2.7525758,28.996263 7.5051791,30.93933 z"
       style="fill:#ffffff;fill-opacity:1;stroke:none"
       id="path3451"
       inkscape:connector-curvature="0" />
    <path
       style="fill:#ffffff;fill-opacity:1;stroke:none"
       d="m 7.1119714,33.730697 c -3.4218304,0 -6.18655394,2.764723 -6.18655394,6.186554 0,3.42183 2.76472354,6.186553 6.18655394,6.186553 3.4218296,0 6.1865536,-2.764723 6.1865536,-6.186553 0,-3.421831 -2.764724,-6.186554 -6.1865536,-6.186554 z m -2.9918582,2.535473 5.9837168,0 0,1.419864 -2.1805076,0 0,5.882297 -1.6227018,0 0,-5.882297 -2.1805074,0 0,-1.419864 z"
       id="path3955"
       inkscape:connector-curvature="0" />
    <path
       style="fill:#ffffff;fill-opacity:1;stroke:none"
       d="m 22.616388,33.730697 c -3.421831,0 -6.186553,2.764723 -6.186553,6.186554 0,3.42183 2.764722,6.186553 6.186553,6.186553 3.42183,0 6.186554,-2.764723 6.186554,-6.186553 0,-3.421831 -2.764724,-6.186554 -6.186554,-6.186554 z m -2.991858,2.535473 1.622703,0 0,2.78902 2.738311,0 0,-2.78902 1.622702,0 0,7.302161 -1.622702,0 0,-3.093276 -2.738311,0 0,3.093276 -1.622703,0 0,-7.302161 z"
       id="path3961"
       inkscape:connector-curvature="0" />
    <path
       style="fill:#ffffff;fill-opacity:1;stroke:none"
       d="m 38.196868,33.705342 c -3.421829,0 -6.237261,2.815432 -6.237261,6.237264 0,3.421831 2.815432,6.186553 6.237261,6.186553 3.421831,0 6.186556,-2.764722 6.186556,-6.186553 0,-3.421832 -2.764725,-6.237264 -6.186556,-6.237264 z m -2.586181,2.586182 4.918817,0 0,1.369156 -3.296115,0 0,1.419864 2.890438,0 0,1.369155 -2.890438,0 0,1.724122 3.498952,0 0,1.369156 -5.121654,0 0,-7.251453 z"
       id="path3967"
       inkscape:connector-curvature="0" />
    <path
       style="fill:#ffffff;fill-opacity:1;stroke:none"
       d="m 25.722811,49.632903 c -3.461732,0 -6.258695,2.796964 -6.258695,6.258695 0,3.461734 2.796963,6.309998 6.258695,6.309998 3.461733,0 6.258697,-2.848264 6.258697,-6.309998 0,-3.461731 -2.796964,-6.258695 -6.258697,-6.258695 z m 0,2.462437 c 0.501521,8e-6 0.991403,0.04275 1.436422,0.205203 0.445009,0.162473 0.796617,0.444586 1.128619,0.769512 0.331987,0.324939 0.630085,0.699594 0.82081,1.17992 0.190715,0.473272 0.256499,1.012958 0.256505,1.641623 -6e-6,0.628676 -0.0658,1.212596 -0.256505,1.692926 -0.183663,0.473272 -0.444586,0.854988 -0.769509,1.17992 -0.324938,0.317866 -0.727847,0.555745 -1.17992,0.718211 -0.445019,0.16247 -0.920774,0.256504 -1.436422,0.256504 -0.501527,0 -0.991409,-0.09403 -1.436421,-0.256504 -0.445016,-0.162473 -0.796624,-0.400345 -1.128618,-0.718211 -0.331996,-0.324932 -0.630092,-0.706648 -0.820813,-1.17992 -0.19072,-0.48033 -0.256504,-1.06425 -0.256504,-1.692926 0,-0.628665 0.110023,-1.168351 0.307805,-1.641623 0.197784,-0.480326 0.437516,-0.854981 0.769512,-1.17992 0.339056,-0.324926 0.741965,-0.607038 1.179919,-0.769512 0.445012,-0.162454 0.89772,-0.205195 1.38512,-0.205203 z m 0,1.436423 c -0.310807,7e-6 -0.580648,0.08514 -0.820812,0.205203 -0.24017,0.113024 -0.446083,0.249801 -0.615609,0.461707 -0.162469,0.204854 -0.31858,0.47284 -0.410407,0.769512 -0.08476,0.289616 -0.102602,0.570232 -0.102602,0.923413 -1e-6,0.360254 0.01783,0.685105 0.102602,0.974716 0.09183,0.289616 0.247938,0.557603 0.410407,0.769512 0.169526,0.20485 0.375439,0.348689 0.615609,0.461707 0.240164,0.113024 0.510005,0.205204 0.820812,0.205203 0.303737,10e-7 0.580643,-0.09218 0.820812,-0.205203 0.247227,-0.113024 0.45314,-0.256857 0.61561,-0.461707 0.169524,-0.211909 0.274336,-0.479896 0.359107,-0.769512 0.09182,-0.289611 0.153888,-0.614462 0.153903,-0.974716 -6e-6,-0.360245 -0.06208,-0.685098 -0.153903,-0.974714 -0.08477,-0.296672 -0.189583,-0.513357 -0.359107,-0.718211 -0.16247,-0.211906 -0.368383,-0.399982 -0.61561,-0.513008 -0.240169,-0.113013 -0.517075,-0.153903 -0.820812,-0.153903 z"
       id="path3973"
       inkscape:connector-curvature="0" />
    <path
       style="fill:#ffffff;fill-opacity:1;stroke:none"
       d="m 41.433677,49.658554 c -3.461734,0 -6.258695,2.796963 -6.258695,6.258696 0,3.461732 2.796961,6.258696 6.258695,6.258696 3.461733,0 6.258697,-2.796964 6.258697,-6.258696 0,-3.461733 -2.796964,-6.258696 -6.258697,-6.258696 z m -0.872113,2.513739 c 1.101938,8e-6 1.978744,0.220048 2.565039,0.615608 0.586284,0.388513 0.872107,1.020379 0.872114,1.846829 -7e-6,0.515657 -0.118948,0.906291 -0.359105,1.231219 -0.23311,0.317871 -0.581009,0.585858 -1.026016,0.769512 0.148342,0.18366 0.299236,0.375444 0.461706,0.61561 0.162455,0.233105 0.306299,0.508155 0.461708,0.769512 0.162455,0.254295 0.313361,0.486963 0.461707,0.76951 0.148341,0.275487 0.283252,0.552391 0.410407,0.820813 l -1.84683,0 c -0.134218,-0.240166 -0.269135,-0.470981 -0.410406,-0.71821 -0.134218,-0.24723 -0.262072,-0.485108 -0.410406,-0.718212 -0.141271,-0.233102 -0.269136,-0.462059 -0.410407,-0.66691 -0.141271,-0.21191 -0.320437,-0.394776 -0.461708,-0.564309 l -0.820811,0 0,2.667641 -1.641625,0 0,-7.23341 c 0.360248,-0.07062 0.747174,-0.125641 1.128617,-0.153904 0.388502,-0.02824 0.722272,-0.05128 1.026016,-0.0513 z m -0.205203,1.436421 c -0.09183,0.0071 -0.223042,0.04425 -0.307805,0.0513 l 0,1.94943 0.513008,0 c 0.621605,4e-6 1.065394,-0.04978 1.33382,-0.205204 0.268417,-0.155396 0.359101,-0.446429 0.359105,-0.820813 -4e-6,-0.360244 -0.134925,-0.621167 -0.410405,-0.76951 -0.268426,-0.155397 -0.650144,-0.205198 -1.179918,-0.205204 -0.120079,6e-6 -0.208918,-0.0071 -0.307805,0 z"
       id="path3979"
       inkscape:connector-curvature="0" />
    <path
       style="fill:#ffffff;fill-opacity:1;stroke:none"
       d="m 57.195846,49.658554 c -3.461736,0 -6.309998,2.796963 -6.309998,6.258696 0,3.461732 2.848262,6.258696 6.309998,6.258696 3.461731,0 6.258695,-2.796965 6.258695,-6.258696 0,-3.461733 -2.796964,-6.258696 -6.258695,-6.258696 z m -3.488456,2.61634 1.949431,0 c 0.226037,0.508596 0.456851,0.986204 0.718212,1.487721 0.261354,0.501531 0.524132,0.986205 0.820813,1.487724 0.296671,-0.501519 0.603686,-0.986193 0.872112,-1.487724 0.268417,-0.501517 0.492167,-0.979125 0.71821,-1.487721 l 1.84683,0 c -0.40264,0.791143 -0.85164,1.515548 -1.28252,2.257233 -0.430893,0.741698 -0.853493,1.508484 -1.33382,2.257236 l 0,2.821543 -1.641625,0 0,-2.821543 C 55.894697,56.040611 55.427861,55.332189 54.989911,54.583428 54.559021,53.83468 54.110022,53.066037 53.70739,52.274894 z"
       id="path3985"
       inkscape:connector-curvature="0" />
    <rect
       style="fill:#ffffff;fill-opacity:1;stroke:none"
       id="rect4007"
       width="7.3413453"
       height="2.2588761"
       x="10.782647"
       y="38.775135" />
    <rect
       y="38.775135"
       x="27.159496"
       height="2.2588761"
       width="7.3413453"
       id="rect4009"
       style="fill:#ffffff;fill-opacity:1;stroke:none" />
    <rect
       style="fill:#ffffff;fill-opacity:1;stroke:none"
       id="rect4011"
       width="12.726171"
       height="1.7339274"
       x="-10.160047"
       y="57.359482"
       transform="matrix(0.78554998,-0.61879821,0.61879821,0.78554998,0,0)" />
    <rect
       y="54.76181"
       x="30.033245"
       height="2.285217"
       width="7.4269533"
       id="rect4013"
       style="fill:#ffffff;fill-opacity:1;stroke:none" />
    <rect
       style="fill:#ffffff;fill-opacity:1;stroke:none"
       id="rect4015"
       width="7.4269533"
       height="2.285217"
       x="45.74411"
       y="54.76181" />
    <path
       style="fill:#ffffff;fill-opacity:1;stroke:none"
       d="m 52.366986,12.32381 c 10.903875,11.923832 13.142836,24.455231 7.792199,37.630909 -0.263765,0.649516 -2.329473,1.073357 -2.059402,0.426437 4.652866,-11.145374 3.353072,-25.925427 -7.7922,-37.630908 -0.483406,-0.507703 1.586321,-0.943775 2.059403,-0.426438 z"
       id="rect4031"
       inkscape:connector-curvature="0"
       sodipodi:nodetypes="sssss" />
  </g>
</svg>
