<?xml version="1.0" encoding="UTF-8" standalone="no"?>
<!-- Created with Inkscape (http://www.inkscape.org/) -->

<svg
   xmlns:dc="http://purl.org/dc/elements/1.1/"
   xmlns:cc="http://creativecommons.org/ns#"
   xmlns:rdf="http://www.w3.org/1999/02/22-rdf-syntax-ns#"
   xmlns:svg="http://www.w3.org/2000/svg"
   xmlns="http://www.w3.org/2000/svg"
   xmlns:sodipodi="http://sodipodi.sourceforge.net/DTD/sodipodi-0.dtd"
   xmlns:inkscape="http://www.inkscape.org/namespaces/inkscape"
   version="1.1"
   width="64"
   height="64"
   id="svg2985"
   inkscape:version="0.48.4 r9939"
   sodipodi:docname="sel_btn_0.svg">
  <sodipodi:namedview
     pagecolor="#ffffff"
     bordercolor="#666666"
     borderopacity="1"
     objecttolerance="10"
     gridtolerance="10"
     guidetolerance="10"
     inkscape:pageopacity="0"
     inkscape:pageshadow="2"
     inkscape:window-width="640"
     inkscape:window-height="480"
     id="namedview3292"
     showgrid="false"
     inkscape:zoom="3.6875"
     inkscape:cx="32"
     inkscape:cy="32"
     inkscape:window-x="0"
     inkscape:window-y="0"
     inkscape:window-maximized="0"
     inkscape:current-layer="svg2985" />
  <defs
     id="defs2987" />
  <metadata
     id="metadata2990">
    <rdf:RDF>
      <cc:Work
         rdf:about="">
        <dc:format>image/svg+xml</dc:format>
        <dc:type
           rdf:resource="http://purl.org/dc/dcmitype/StillImage" />
        <dc:title />
      </cc:Work>
    </rdf:RDF>
  </metadata>
  <g
     style="fill:#ffffff;stroke-width:18.15299988;stroke-miterlimit:4;stroke-dasharray:none"
     id="g5"
     transform="matrix(0.09213127,0,0,0.09213127,8.843342,8.84338)">
    <path
       inkscape:connector-curvature="0"
       style="fill:#ffffff;stroke-width:18.15299988;stroke-miterlimit:4;stroke-dasharray:none"
       id="path7"
       d="m 404.033,286.827 c 0,0 -2.006,-23.447 -17.408,-36.325 -8.607,-7.291 -16.847,-8.24 -22.692,-7.679 v 44.091 h -10.548 v -48.297 c -3.149,-6.838 -9.448,-17.408 -19.457,-21.377 -9.966,-4.012 -20.169,-3.02 -26.424,-1.812 v 49.764 h -10.505 v -55.868 c -4.465,-5.371 -12.49,-11.778 -26.554,-12.619 -7.593,-0.453 -14.366,2.61 -19.716,5.975 l -1.035,47.822 h -10.57 l 0.324,-86.822 C 273.53,153.002 298.444,121.552 298.444,83.911 298.423,37.555 260.847,0 214.513,0 c -46.356,0 -83.91,37.555 -83.91,83.932 0,36.282 23.102,66.913 55.329,78.626 v 147.35 c 0,0 -27.136,-58.392 -50.195,-66.093 -23.016,-7.679 -37.339,6.148 -37.339,6.148 0,0 26.144,48.448 45.32,102.159 12.317,34.556 16.006,74.613 26.877,94.458 27.632,50.713 62.922,55.976 105.503,55.976 42.494,0 100.304,3.947 115.663,-31.407 15.379,-35.311 12.272,-184.322 12.272,-184.322 z M 166.712,83.889 c 0,-26.381 21.398,-47.801 47.801,-47.801 26.381,0 47.801,21.42 47.801,47.801 0,17.192 -9.146,32.097 -22.714,40.531 l 0.108,-30.911 c 0,0 -6.191,-32.184 -26.122,-32.184 -19.996,0 -27.632,27.611 -27.632,27.611 v 33.068 C 174.348,113.311 166.712,99.549 166.712,83.889 z" />
  </g>
  <g
     style="fill:#ffffff;stroke-width:18.15299988;stroke-miterlimit:4;stroke-dasharray:none"
     id="g9"
     transform="matrix(0.09213127,0,0,0.09213127,8.843342,8.84338)" />
  <g
     style="fill:#ffffff;stroke-width:18.15299988;stroke-miterlimit:4;stroke-dasharray:none"
     id="g11"
     transform="matrix(0.09213127,0,0,0.09213127,8.843342,8.84338)" />
  <g
     style="fill:#ffffff;stroke-width:18.15299988;stroke-miterlimit:4;stroke-dasharray:none"
     id="g13"
     transform="matrix(0.09213127,0,0,0.09213127,8.843342,8.84338)" />
  <g
     style="fill:#ffffff;stroke-width:18.15299988;stroke-miterlimit:4;stroke-dasharray:none"
     id="g15"
     transform="matrix(0.09213127,0,0,0.09213127,8.843342,8.84338)" />
  <g
     style="fill:#ffffff;stroke-width:18.15299988;stroke-miterlimit:4;stroke-dasharray:none"
     id="g17"
     transform="matrix(0.09213127,0,0,0.09213127,8.843342,8.84338)" />
  <g
     style="fill:#ffffff;stroke-width:18.15299988;stroke-miterlimit:4;stroke-dasharray:none"
     id="g19"
     transform="matrix(0.09213127,0,0,0.09213127,8.843342,8.84338)" />
  <g
     style="fill:#ffffff;stroke-width:18.15299988;stroke-miterlimit:4;stroke-dasharray:none"
     id="g21"
     transform="matrix(0.09213127,0,0,0.09213127,8.843342,8.84338)" />
  <g
     style="fill:#ffffff;stroke-width:18.15299988;stroke-miterlimit:4;stroke-dasharray:none"
     id="g23"
     transform="matrix(0.09213127,0,0,0.09213127,8.843342,8.84338)" />
  <g
     style="fill:#ffffff;stroke-width:18.15299988;stroke-miterlimit:4;stroke-dasharray:none"
     id="g25"
     transform="matrix(0.09213127,0,0,0.09213127,8.843342,8.84338)" />
  <g
     style="fill:#ffffff;stroke-width:18.15299988;stroke-miterlimit:4;stroke-dasharray:none"
     id="g27"
     transform="matrix(0.09213127,0,0,0.09213127,8.843342,8.84338)" />
  <g
     style="fill:#ffffff;stroke-width:18.15299988;stroke-miterlimit:4;stroke-dasharray:none"
     id="g29"
     transform="matrix(0.09213127,0,0,0.09213127,8.843342,8.84338)" />
  <g
     style="fill:#ffffff;stroke-width:18.15299988;stroke-miterlimit:4;stroke-dasharray:none"
     id="g31"
     transform="matrix(0.09213127,0,0,0.09213127,8.843342,8.84338)" />
  <g
     style="fill:#ffffff;stroke-width:18.15299988;stroke-miterlimit:4;stroke-dasharray:none"
     id="g33"
     transform="matrix(0.09213127,0,0,0.09213127,8.843342,8.84338)" />
  <g
     style="fill:#ffffff;stroke-width:18.15299988;stroke-miterlimit:4;stroke-dasharray:none"
     id="g35"
     transform="matrix(0.09213127,0,0,0.09213127,8.843342,8.84338)" />
  <g
     style="fill:#ffffff;stroke-width:18.15299988;stroke-miterlimit:4;stroke-dasharray:none"
     id="g37"
     transform="matrix(0.09213127,0,0,0.09213127,8.843342,8.84338)" />
</svg>
